<?xml version="1.0" encoding="iso-8859-1"?>
<!-- Generator: Adobe Illustrator 19.0.0, SVG Export Plug-In . SVG Version: 6.00 Build 0)  -->
<svg version="1.1" id="Capa_1" xmlns="http://www.w3.org/2000/svg" xmlns:xlink="http://www.w3.org/1999/xlink" x="0px" y="0px"
	 viewBox="0 0 512 512" style="enable-background:new 0 0 512 512;" xml:space="preserve">
<path style="fill:#367926;" d="M334.5,321c-4.142,0-7.5,3.358-7.5,7.5V446h-21c-4.142,0-7.5,3.358-7.5,7.5s3.358,7.5,7.5,7.5h28.5
	c4.142,0,7.5-3.358,7.5-7.5V336h62.5v-15H334.5z"/>
<path style="fill:#FDC0AB;" d="M206,446h-21V328.5c0-4.142-3.358-7.5-7.5-7.5h-70v15H170v117.5c0,4.142,3.358,7.5,7.5,7.5H206
	c4.142,0,7.5-3.358,7.5-7.5S210.142,446,206,446z"/>
<polygon style="fill:#743225;" points="354.5,261 324.5,276 354.5,291 384.5,291 404.5,261 "/>
<polygon style="fill:#84473C;" points="107.5,261 127.5,291 354.5,291 354.5,261 "/>
<g>
	<path style="fill:#1CB9FD;" d="M187.5,203.5c-4.143,0-7.5,3.357-7.5,7.5v20h15v-20C195,206.857,191.643,203.5,187.5,203.5z"/>
	<path style="fill:#1CB9FD;" d="M217.5,203.5c-4.143,0-7.5,3.357-7.5,7.5v20h15v-20C225,206.857,221.643,203.5,217.5,203.5z"/>
</g>
<g>
	<path style="fill:#E34339;" d="M247.5,203.5c-4.143,0-7.5,3.357-7.5,7.5v20h15v-20C255,206.857,251.643,203.5,247.5,203.5z"/>
	<path style="fill:#E34339;" d="M294.5,203.5c-4.143,0-7.5,3.357-7.5,7.5v20h15v-20C302,206.857,298.643,203.5,294.5,203.5z"/>
	<path style="fill:#E34339;" d="M324.5,203.5c-4.143,0-7.5,3.357-7.5,7.5v20h15v-20C332,206.857,328.643,203.5,324.5,203.5z"/>
</g>
<path style="fill:#FACF2A;" d="M354.5,238.5h-197c-4.143,0-7.5-3.357-7.5-7.5s3.357-7.5,7.5-7.5h197c4.143,0,7.5,3.357,7.5,7.5
	S358.643,238.5,354.5,238.5z"/>
<polygon style="fill:#FCAC43;" points="67.5,261 97.5,351 137.5,336 127.5,291 "/>
<path style="fill:#FACF2A;" d="M37.5,291c0,24.853,20.147,45,45,45l15,15v-80L37.5,291z"/>
<path style="fill:#3A3A3A;" d="M107.5,171h-30l20,120h30V191C127.5,179.954,118.546,171,107.5,171z"/>
<path style="fill:#0A5C11;" d="M429.5,261v75c24.853,0,45-20.147,45-45L429.5,261z"/>
<path style="fill:#367926;" d="M444.5,291v-30l-60,30l-10,45l32.5,15l22.5-15C437.784,336,444.5,315.853,444.5,291z"/>
<polygon style="fill:#C57C68;" points="474.5,336 454.5,351 474.5,366 504.5,366 504.5,336 "/>
<rect x="374.5" y="336" style="fill:#E18F75;" width="100" height="30"/>
<polygon style="fill:#C57C68;" points="97.5,336 77.5,351 97.5,366 137.5,366 137.5,336 "/>
<g>
	<rect x="7.5" y="336" style="fill:#E18F75;" width="90" height="30"/>
	<path style="fill:#E18F75;" d="M504.5,461c-4.143,0-7.5-3.357-7.5-7.5v-275c0-4.143,3.357-7.5,7.5-7.5s7.5,3.357,7.5,7.5v275
		C512,457.643,508.643,461,504.5,461z"/>
	<path style="fill:#E18F75;" d="M7.5,461c-4.143,0-7.5-3.357-7.5-7.5v-275c0-4.143,3.357-7.5,7.5-7.5s7.5,3.357,7.5,7.5v275
		C15,457.643,11.643,461,7.5,461z"/>
</g>
<path style="fill:#8FDBFD;" d="M454.5,171h-30l20,120h30V191C474.5,179.954,465.546,171,454.5,171z"/>
<path style="fill:#CDEFFD;" d="M424.5,171h-20c-11.046,0-20,8.954-20,20v100h60V191C444.5,179.954,435.546,171,424.5,171z"/>
<circle style="fill:#F06449;" cx="32.5" cy="116" r="25"/>
<path style="fill:#FDC0AB;" d="M96.592,80.547L82.5,141c24.853,0,45-20.147,45-45L96.592,80.547z"/>
<path style="fill:#FDDFD3;" d="M97.5,96c0-5.429-0.321-10.634-0.908-15.453L55.497,60.002C44.57,68.212,37.5,81.28,37.5,96
	c0,24.853,20.147,45,45,45C90.784,141,97.5,120.853,97.5,96z"/>
<path style="fill:#F06449;" d="M82.5,51l14.899,39.832C106.812,94.173,116.941,96,127.5,96C127.5,71.147,107.353,51,82.5,51z"/>
<path style="fill:#FD8358;" d="M82.5,51c-10.132,0-19.481,3.35-27.003,9.002c10.532,14.02,25.066,24.856,41.901,30.831
	C96.544,68.415,90.201,51,82.5,51z"/>
<path style="fill:#555555;" d="M97.5,191c0-11.046-8.954-20-20-20h-20c-11.046,0-20,8.954-20,20v100h60V191z"/>
<path style="fill:#E19556;" d="M443.592,80.547L429.5,141c24.853,0,45-20.147,45-45L443.592,80.547z"/>
<path style="fill:#FCAC43;" d="M444.5,96c0-5.429-0.321-10.634-0.908-15.453l-41.095-20.546C391.57,68.212,384.5,81.28,384.5,96
	c0,24.853,20.147,45,45,45C437.784,141,444.5,120.853,444.5,96z"/>
<path style="fill:#401F18;" d="M429.5,51l14.899,39.832C453.812,94.173,463.941,96,474.5,96C474.5,71.147,454.353,51,429.5,51z"/>
<path style="fill:#632B21;" d="M429.5,51c-10.132,0-19.481,3.35-27.003,9.002c10.532,14.02,25.066,24.856,41.901,30.831
	C443.544,68.415,437.201,51,429.5,51z"/>
<g>
	<path style="fill:#743225;" d="M369.5,261v192.5c0,4.143,3.357,7.5,7.5,7.5s7.5-3.357,7.5-7.5v-185L369.5,261z"/>
	<path style="fill:#743225;" d="M127.5,268.5v185c0,4.143,3.358,7.5,7.5,7.5s7.5-3.357,7.5-7.5V261L127.5,268.5z"/>
</g>
<path style="fill:#FDDFD3;" d="M127.5,268.5h-15C83.552,268.5,60,244.948,60,216v-15c0-4.143,3.357-7.5,7.5-7.5s7.5,3.357,7.5,7.5
	v15c0,20.678,16.822,37.5,37.5,37.5h15c4.143,0,7.5,3.357,7.5,7.5S131.643,268.5,127.5,268.5z"/>
<path style="fill:#FCAC43;" d="M399.5,268.5h-15c-4.143,0-7.5-3.357-7.5-7.5s3.357-7.5,7.5-7.5h15c20.678,0,37.5-16.822,37.5-37.5
	v-15c0-4.143,3.357-7.5,7.5-7.5s7.5,3.357,7.5,7.5v15C452,244.948,428.448,268.5,399.5,268.5z"/>
<rect x="127.5" y="253.5" style="fill:#E18F75;" width="257" height="15"/>
<g>
</g>
<g>
</g>
<g>
</g>
<g>
</g>
<g>
</g>
<g>
</g>
<g>
</g>
<g>
</g>
<g>
</g>
<g>
</g>
<g>
</g>
<g>
</g>
<g>
</g>
<g>
</g>
<g>
</g>
</svg>
