<?xml version="1.0" encoding="iso-8859-1"?>
<!-- Generator: Adobe Illustrator 22.1.0, SVG Export Plug-In . SVG Version: 6.00 Build 0)  -->
<svg xmlns="http://www.w3.org/2000/svg" xmlns:xlink="http://www.w3.org/1999/xlink" version="1.1" id="Layer_3" x="0px" y="0px" viewBox="0 0 64 64" style="enable-background:new 0 0 64 64;" xml:space="preserve" width="512" height="512">
<g>
	<polyline style="fill:#D5AC90;" points="27,24 27,29 32,30 37,29 37,24  "/>
	<path style="fill:#D5AC90;" d="M22,29l-5,3l-0.217,1.087C16.783,33.087,12,35,12,35l-0.6,3c0,0-2.4,0-2.4,0c-2.761,0-5,2.238-5,5   C4,45.703,6.297,48,9,48c2.761,0,5-2.239,5-5l9-5l1,6l-3,8h7l3-4h2l3,4h7l-3-8l1-6l9,5c0,2.761,2.238,5,5,5   c2.703,0,5.001-2.297,5-5c0-2.761-2.239-5-5-5c0,0-2.4,0-2.4,0L52,35c0,0-4.783-1.913-4.783-1.913L47,32l-5-3h-5l-5,1l-5-1H22z"/>
	<polyline style="fill:#39474E;" points="24,44 21,52 28,52 31,48 33,48 36,52 43,52 40,44  "/>
	<polyline style="fill:#657B88;" points="40,44 40.323,44.862 33,48 31,48 23.677,44.862 24,44  "/>
	<polyline style="fill:#992C38;" points="24,44 23,38 21,35 22,29 27,29 32,30 37,29 42,29 43,35 41,38 40,44  "/>
	<polygon style="fill:#74564A;" points="40.667,40 23.333,40 24,44 40,44  "/>
	<path style="fill:#74564A;" d="M28,52h-8l-2,6h-3c-1.105,0-2,0.895-2,2v2h14l-1-4L28,52z"/>
	<path style="fill:#74564A;" d="M36,52h8l2,6h3c1.105,0,2,0.895,2,2v2H37l1-4L36,52z"/>
	<path style="fill:#39474E;" d="M42,23l-6,3h-8l-6-3l-2-9c0-6.627,5.373-12,12-12h0c6.627,0,12,5.373,12,12L42,23z"/>
	<path style="fill:#D1D8DB;" d="M30,17l-6-2v2c0,1.657,1.343,3,3,3h0C28.657,20,30,18.657,30,17L30,17z"/>
	<path style="fill:#D1D8DB;" d="M34,17l6-2v2c0,1.657-1.343,3-3,3h0C35.343,20,34,18.657,34,17L34,17z"/>
</g>
</svg>
