<svg height="464pt" viewBox="-88 0 464 464" width="464pt" xmlns="http://www.w3.org/2000/svg"><path d="m48 432h208v32h-208zm0 0" fill="#143441"/><path d="m64 368h176v64h-176zm0 0" fill="#5a6470"/><path d="m184 80c-24-6.945312-16-16-16-16 9.933594-7.667969 15.824219-19.453125 16-32 0-17.671875-14.328125-32-32-32s-32 14.328125-32 32c.175781 12.546875 6.066406 24.332031 16 32 0 0 8 9.054688-16 16s-32 10.265625-32 24.152344v55.542968c.113281 4.027344 1.910156 7.820313 4.949219 10.464844 3.039062 2.640625 7.046875 3.890625 11.050781 3.441406 0 0 8 0 8 13.886719s16 180.511719 16 180.511719h48s16-166.640625 16-180.527344c0-13.886718 8-13.871094 8-13.871094 4 .449219 8.003906-.796874 11.046875-3.4375 3.039063-2.636718 4.835937-6.429687 4.953125-10.453124v-55.558594c0-13.886719-8-17.207032-32-24.152344zm0 0" fill="#fcf05a"/><g fill="#e97424"><path d="m208 408h-112c-4.417969 0-8-3.582031-8-8s3.582031-8 8-8h112c4.417969 0 8 3.582031 8 8s-3.582031 8-8 8zm0 0"/><path d="m256 200h16v16h-16zm0 0"/><path d="m256 232h16v16h-16zm0 0"/><path d="m240 216h16v16h-16zm0 0"/><path d="m272 216h16v16h-16zm0 0"/><path d="m16 72h16v16h-16zm0 0"/><path d="m16 104h16v16h-16zm0 0"/><path d="m0 88h16v16h-16zm0 0"/><path d="m32 88h16v16h-16zm0 0"/><path d="m264 128h16v16h-16zm0 0"/><path d="m56 16h16v16h-16zm0 0"/></g></svg>