<svg id="Capa_1" enable-background="new 0 0 512 512" height="512" viewBox="0 0 512 512" width="512" xmlns="http://www.w3.org/2000/svg"><g><path d="m459.492 140.084v341.763c0 16.648-13.495 30.153-30.153 30.153h-346.667c-16.658 0-30.164-13.506-30.164-30.153v-341.763c0-16.648 13.506-30.153 30.164-30.153h346.666c16.658 0 30.154 13.505 30.154 30.153z" fill="#da4a54"/><path d="m459.492 30.153v109.931h-406.984v-109.931c0-16.647 13.506-30.153 30.164-30.153h346.666c16.658 0 30.154 13.506 30.154 30.153z" fill="#ffd064"/><g><g><path d="m408.255 115.592c-20.96 0-38.011-17.051-38.011-38.011s17.051-38.011 38.011-38.011c7.616 0 14.966 2.246 21.257 6.496 3.536 2.389 4.466 7.192 2.077 10.728-2.388 3.536-7.192 4.465-10.727 2.077-3.726-2.518-8.086-3.848-12.607-3.848-12.439 0-22.558 10.119-22.558 22.558s10.12 22.558 22.558 22.558c4.596 0 8.46-1.365 11.483-4.057.59-.525 1.153-1.107 1.674-1.729 2.741-3.27 7.616-3.699 10.884-.958 3.271 2.741 3.7 7.614.959 10.885-1 1.193-2.091 2.317-3.239 3.342-5.857 5.214-13.381 7.97-21.761 7.97z" fill="#da4a54"/></g><g><path d="m112.446 115.592c-20.959 0-38.01-17.051-38.01-38.011s17.051-38.011 38.01-38.011c7.617 0 14.967 2.246 21.258 6.496 3.536 2.389 4.466 7.192 2.077 10.728-2.388 3.536-7.191 4.465-10.727 2.077-3.726-2.518-8.087-3.848-12.608-3.848-12.439 0-22.557 10.119-22.557 22.558s10.119 22.558 22.557 22.558c4.597 0 8.46-1.365 11.482-4.056.59-.525 1.154-1.107 1.679-1.733 2.743-3.269 7.617-3.695 10.885-.952 3.269 2.743 3.694 7.617.952 10.885-1.006 1.198-2.096 2.322-3.24 3.341-5.853 5.212-13.377 7.968-21.758 7.968z" fill="#da4a54"/></g><path d="m182.415 115.592c-20.96 0-38.011-17.051-38.011-38.011s17.051-38.011 38.011-38.011c20.959 0 38.01 17.051 38.01 38.011s-17.051 38.011-38.01 38.011zm0-60.569c-12.439 0-22.558 10.119-22.558 22.558s10.12 22.558 22.558 22.558 22.557-10.119 22.557-22.558-10.118-22.558-22.557-22.558z" fill="#da4a54"/><path d="m318.502 47.623c-4.53-4.739-10.952-7.143-19.086-7.143-8.247 0-15.089 2.863-19.994 7.949-4.358-5.494-10.722-8.262-19.065-8.262-5.444 0-10.375 1.457-14.58 4.112-1.082-2.961-3.915-5.078-7.251-5.078-4.268 0-7.726 3.459-7.726 7.726v60.938c0 4.267 3.459 7.726 7.726 7.726s7.726-3.459 7.726-7.726c0 0 .005-31.479.005-31.513 0-12.595 5.534-20.733 14.1-20.733 4.267 0 10.111 0 10.636 17.812.038 1.301.019 34.434.019 34.434 0 4.267 3.459 7.726 7.726 7.726s7.726-3.459 7.726-7.726c0 0-.045-35.331-.053-35.555l.069-.063c.002-10.826 4.354-16.315 12.936-16.315 5.652 0 7.356 1.782 7.915 2.368 1.801 1.884 3.837 6.576 3.312 18.236-.005.116-.008 31.328-.008 31.328 0 4.267 3.459 7.726 7.726 7.726 4.268 0 7.726-3.459 7.726-7.726v-30.808c.61-14.027-1.802-23.384-7.585-29.433z" fill="#da4a54"/><g><path d="m349.771 115.592c-4.268 0-7.726-3.459-7.726-7.726v-62.9c0-4.267 3.459-7.726 7.726-7.726 4.268 0 7.726 3.459 7.726 7.726v62.899c.001 4.267-3.458 7.727-7.726 7.727z" fill="#da4a54"/></g><g><path d="m349.771 32.76c-4.268 0-7.726-3.459-7.726-7.726v-.515c0-4.267 3.459-7.726 7.726-7.726 4.268 0 7.726 3.459 7.726 7.726v.515c.001 4.267-3.458 7.726-7.726 7.726z" fill="#da4a54"/></g></g><g><path d="m288.911 370.143-167.59 47.049c-13.458 3.778-27.43-4.069-31.208-17.526-3.778-13.458 4.069-27.43 17.526-31.208l167.59-47.049c13.458-3.778 27.43 4.069 31.208 17.526 3.778 13.458-4.069 27.43-17.526 31.208z" fill="#d2a572"/><path d="m227.08 471.904c-38.963 10.938-79.416-11.78-90.354-50.743l-18.763-66.835c-10.938-38.963 11.78-79.416 50.743-90.354 38.963-10.938 79.416 11.78 90.354 50.743l18.763 66.835c10.938 38.962-11.78 79.415-50.743 90.354z" fill="#eccda0"/><path d="m244.531 464.481c-5.347 3.158-11.177 5.668-17.444 7.427-38.969 10.94-79.421-11.778-90.361-50.746l-18.761-66.827c-10.94-38.968 11.778-79.421 50.747-90.361 6.267-1.759 12.551-2.65 18.761-2.737-27.958 16.477-42.483 50.232-33.302 82.934l18.761 66.827c9.18 32.701 39.15 53.964 71.599 53.483z" fill="#eab57f"/><g fill="#4d5961"><path d="m176.551 370.399c-3.376 0-6.477-2.23-7.435-5.64l-4.001-14.251c-1.154-4.109 1.241-8.374 5.35-9.527 4.109-1.155 8.373 1.242 9.527 5.35l4.001 14.251c1.154 4.109-1.241 8.374-5.35 9.527-.697.197-1.401.29-2.092.29z"/><path d="m213.367 360.063c-3.376 0-6.477-2.23-7.435-5.64l-4.001-14.251c-1.154-4.108 1.241-8.374 5.35-9.527 4.107-1.154 8.373 1.242 9.527 5.35l4.001 14.251c1.154 4.108-1.241 8.374-5.35 9.527-.698.197-1.401.29-2.092.29z"/></g><path d="m104.357 267.099 6.198-1.74c18.799-5.278 38.316 5.684 43.594 24.482l.073.261c5.278 18.799-5.684 38.316-24.482 43.594l-6.198 1.74c-18.799 5.278-38.316-5.684-43.594-24.482l-.073-.261c-5.278-18.799 5.684-38.317 24.482-43.594z" fill="#5e6b75"/><path d="m138.482 329.9c-2.666 1.628-5.596 2.91-8.739 3.792l-6.192 1.738c-18.802 5.278-38.323-5.675-43.602-24.477l-.073-.26c-5.278-18.802 5.69-38.315 24.492-43.593l6.192-1.738c3.143-.882 6.312-1.313 9.436-1.31-13.282 8-20.148 24.143-15.752 39.801l.073.26c4.395 15.658 18.66 25.869 34.165 25.787z" fill="#4d5961"/><path d="m145.458 281.588c7.586 27.022 35.641 42.777 62.662 35.191 43.951-12.339 69.577-57.97 57.238-101.921l-1.82-6.484-93.151 26.151c-20.232 5.68-31.596 27.134-24.929 47.063z" fill="#5e6b75"/><g fill="#4d5961"><path d="m223.557 310.735c-4.837 2.48-10.002 4.516-15.438 6.043-27.027 7.588-55.073-8.163-62.66-35.19-6.666-19.93 4.702-41.378 24.934-47.058l28.291-7.943c-20.232 5.68-31.6 27.128-24.934 47.058 6.383 22.738 27.252 37.494 49.807 37.09z"/><path d="m238.423 388.559c-4.993-17.785-14.418 4.048-32.203 9.041s-37.195-8.744-32.203 9.04 23.458 28.155 41.243 23.162c17.785-4.992 28.155-23.458 23.163-41.243z"/></g></g><path d="m398.851 172.298h-64.324c-20.077 0-36.353 16.276-36.353 36.353v46.774c0 20.077 16.276 36.353 36.353 36.353h9.581c16.502 30.227 4.392 57.253 4.392 57.253 40.116-10.202 38.93-39.565 34.097-57.253h16.253c20.077 0 36.353-16.276 36.353-36.353v-46.774c.001-20.077-16.275-36.353-36.352-36.353z" fill="#f7f9f9"/><g fill="#5986cb"><path d="m406.053 222.468h-71.256c-4.268 0-7.726-3.459-7.726-7.726s3.459-7.726 7.726-7.726h71.256c4.268 0 7.726 3.459 7.726 7.726.001 4.267-3.458 7.726-7.726 7.726z"/><path d="m378.647 255.356h-43.849c-4.268 0-7.726-3.459-7.726-7.726s3.459-7.726 7.726-7.726h43.849c4.268 0 7.726 3.459 7.726 7.726s-3.459 7.726-7.726 7.726z"/><circle cx="377.803" cy="430.92" r="52.928"/></g><g><path d="m376.307 445.132c-.578 0-1.165-.065-1.753-.201-4.157-.964-6.745-5.115-5.782-9.272l7.66-33.039c.965-4.157 5.118-6.747 9.273-5.782 4.157.964 6.745 5.115 5.782 9.272l-7.66 33.039c-.828 3.57-4.006 5.983-7.52 5.983z" fill="#ffd064"/></g><g><path d="m371.649 465.223c-.581 0-1.169-.065-1.759-.203-4.156-.967-6.74-5.12-5.774-9.276l.117-.501c.967-4.156 5.118-6.745 9.277-5.774 4.156.967 6.74 5.12 5.774 9.276l-.117.501c-.83 3.567-4.007 5.977-7.518 5.977z" fill="#ffd064"/></g></g></svg>