<svg height="512" viewBox="0 0 64 64" width="512" xmlns="http://www.w3.org/2000/svg"><g id="Wireless_Charger" data-name="Wireless Charger"><path d="m61 32a13.967 13.967 0 0 1 -7 12.12 13.854 13.854 0 0 1 -7 1.88h-30a13.867 13.867 0 0 1 -4-.58 14.005 14.005 0 0 1 0-26.84 13.867 13.867 0 0 1 4-.58h30a14.01 14.01 0 0 1 14 14z" fill="#d8d7da"/><rect fill="#5aaae7" height="46" rx="4" width="26" x="28" y="9"/><path d="m46 9v2a2.006 2.006 0 0 1 -2 2h-6a2.006 2.006 0 0 1 -2-2v-2z" fill="#ff9811"/><path d="m24 26v12a2.006 2.006 0 0 1 -2 2h-10a1.891 1.891 0 0 1 -.82-.18 2 2 0 0 1 -1.18-1.82v-12a2.006 2.006 0 0 1 2-2h10a2.006 2.006 0 0 1 2 2z" fill="#ffa733"/><path d="m13 40v19a2.006 2.006 0 0 0 2 2h4a2.006 2.006 0 0 0 2-2v-19z" fill="#acabb1"/><path d="m19 3h-4a2.006 2.006 0 0 0 -2 2v19h8v-19a2.006 2.006 0 0 0 -2-2z" fill="#acabb1"/><path d="m24 27v11a2.006 2.006 0 0 1 -2 2h-10a1.891 1.891 0 0 1 -.82-.18z" fill="#ff9811"/><path d="m54 25v26a4 4 0 0 1 -4 4h-18a4 4 0 0 1 -4-4z" fill="#3d9ae2"/><circle cx="41" cy="32" fill="#ffa733" r="8"/><g fill="#898890"><path d="m16 7h2v2h-2z"/><path d="m16 11h2v2h-2z"/><path d="m16 15h2v2h-2z"/><path d="m16 19h2v2h-2z"/><path d="m16 55h2v2h-2z"/><path d="m16 51h2v2h-2z"/><path d="m16 47h2v2h-2z"/><path d="m16 43h2v2h-2z"/></g><path d="m17.929 37.371-1.858-.742 1.452-3.629h-2.523a1 1 0 0 1 -.929-1.371l2-5 1.858.742-1.452 3.629h2.523a1 1 0 0 1 .929 1.371z" fill="#ee8700"/><path d="m41.929 37.371-1.858-.742 1.452-3.629h-2.523a1 1 0 0 1 -.929-1.371l2-5 1.858.742-1.452 3.629h2.523a1 1 0 0 1 .929 1.371z" fill="#ee8700"/></g></svg>