<svg id="Capa_1" enable-background="new 0 0 512 512" height="512" viewBox="0 0 512 512" width="512" xmlns="http://www.w3.org/2000/svg"><g><path d="m509.975 36.289c-8.276-14.267-21.304-25.406-36.683-31.366-32.601-12.634-57.258 2.741-70.616 5.517-36.424 11.495-74.928 11.495-111.352 0-13.381-2.78-38.022-18.147-70.616-5.517-15.379 5.96-28.407 17.1-36.683 31.366-1.327 2.287-2.025 4.883-2.025 7.527v176.831c0 96.106 67.58 179.353 161.964 198.859 1.998.413 4.065.415 6.071 0 94.115-19.45 161.965-102.478 161.965-198.86v-176.83c0-2.644-.699-5.24-2.025-7.527z" fill="#f23866"/><path d="m512 43.815v176.83c0 96.38-67.85 179.41-161.96 198.86-1 .21-2.02.31-3.04.31v-400.76c18.73 0 37.46-2.87 55.68-8.62 13.35-2.77 38.01-18.15 70.61-5.51 15.38 5.96 28.41 17.1 36.68 31.36 1.33 2.29 2.03 4.89 2.03 7.53z" fill="#d9215e"/><path d="m347.067 241.046c-.024 0-.044 0-.068 0-33.051 0-59.962 26.873-60 59.932-.009 8.284 6.699 15.008 14.983 15.017h.018c8.276 0 14.99-6.705 15-14.983.019-16.531 13.473-29.966 30-29.966h.034c16.505.019 29.948 13.461 29.966 29.965.009 8.279 6.722 14.985 15 14.984h.017c8.284-.009 14.993-6.732 14.984-15.016-.037-33.01-26.922-59.896-59.934-59.933z" fill="#671c80"/><path d="m407 300.975c.01 8.29-6.7 15.01-14.98 15.02-.01 0-.02 0-.02 0-8.28 0-14.99-6.7-15-14.98-.02-16.51-13.46-29.95-29.97-29.97h-.03v-30h.07c33.01.04 59.89 26.92 59.93 59.93z" fill="#471a52"/><path d="m327.975 128.468c-8.276-14.267-21.304-25.406-36.683-31.366-32.603-12.634-57.248 2.739-70.616 5.517-36.424 11.495-74.928 11.495-111.352 0-13.381-2.78-38.022-18.147-70.616-5.517-15.379 5.96-28.407 17.1-36.683 31.366-1.326 2.287-2.025 4.883-2.025 7.527v176.83c0 96.108 67.581 179.354 161.964 198.859 1.001.207 2.019.311 3.036.311s2.035-.104 3.036-.311c94.116-19.45 161.964-102.48 161.964-198.859v-176.83c0-2.644-.699-5.24-2.025-7.527z" fill="#671c80"/><path d="m330 135.995v176.83c0 96.38-67.85 179.41-161.96 198.86-1.01.21-2.02.31-3.04.31v-400.76c18.73 0 37.46-2.87 55.68-8.62 13.36-2.77 38.01-18.15 70.61-5.51 15.38 5.96 28.41 17.1 36.68 31.36 1.33 2.29 2.03 4.89 2.03 7.53z" fill="#471a52"/><path d="m438.017 120.995c-.006 0-.011 0-.017 0-8.276 0-14.99 6.705-15 14.983-.004 4.006-1.569 7.771-4.405 10.601-2.832 2.826-6.594 4.381-10.594 4.381-.006 0-.012 0-.018 0-8.252-.009-14.974-6.73-14.982-14.982-.009-8.278-6.723-14.983-15-14.983-.006 0-.011 0-.017 0-8.284.009-14.993 6.732-14.983 15.017.027 24.757 20.191 44.921 44.949 44.949h.053c12 0 23.286-4.667 31.782-13.144 8.509-8.49 13.203-19.785 13.216-31.805.008-8.285-6.7-15.008-14.984-15.017z" fill="#471a52"/><path d="m106.018 256.029c8.252.009 14.974 6.73 14.982 14.982.009 8.278 6.723 14.983 15 14.983h.017c8.284-.009 14.993-6.732 14.983-15.017-.027-24.757-20.191-44.921-44.949-44.949-25.019 0-45.023 20.192-45.051 44.949-.009 8.284 6.699 15.007 14.983 15.017h.017c8.276 0 14.99-6.705 15-14.983.009-8.276 6.709-14.982 15-14.982z" fill="#f23866"/><path d="m210.017 345.995c-.006 0-.011 0-.018 0-8.276 0-14.99 6.705-15 14.983-.019 16.457-13.386 29.966-30.034 29.966-16.505-.019-29.948-13.461-29.966-29.965-.009-8.279-6.722-14.984-15-14.984-.005 0-.012 0-.017 0-8.284.009-14.993 6.732-14.984 15.016.036 33.024 26.951 59.933 60 59.933 33.051 0 59.962-26.873 60-59.932.011-8.284-6.697-15.008-14.981-15.017z" fill="#f23866"/><g fill="#d9215e"><path d="m225 361.015c-.04 33.06-26.95 59.93-60 59.93v-30c16.63-.02 29.98-13.52 30-29.97.01-8.28 6.72-14.98 15-14.98h.02c8.28.01 14.99 6.73 14.98 15.02z"/><path d="m225.998 226.029c-24.828 0-44.97 20.075-44.998 44.949-.009 8.284 6.699 15.007 14.983 15.017h.017c8.276 0 14.99-6.705 15-14.983.009-8.276 6.709-14.982 15-14.982h.018c8.252.009 14.974 6.73 14.982 14.982.009 8.278 6.723 14.983 15 14.983h.017c8.284-.009 14.993-6.732 14.983-15.017-.027-24.771-20.215-44.949-45.002-44.949z"/></g></g></svg>