<?xml version="1.0" encoding="iso-8859-1"?>
<!-- Generator: Adobe Illustrator 19.0.0, SVG Export Plug-In . SVG Version: 6.00 Build 0)  -->
<svg version="1.1" id="Capa_1" xmlns="http://www.w3.org/2000/svg" xmlns:xlink="http://www.w3.org/1999/xlink" x="0px" y="0px"
	 viewBox="0 0 512 512" style="enable-background:new 0 0 512 512;" xml:space="preserve">
<g>
	<rect x="407.863" y="371.762" style="fill:#CCCCCC;" width="79.092" height="112.113"/>
	<rect x="25.041" y="371.202" style="fill:#CCCCCC;" width="79.88" height="113.224"/>
</g>
<g>
	<rect x="25.041" y="371.202" style="fill:#BCBBBB;" width="31.071" height="113.224"/>
	<rect x="410.533" y="371.202" style="fill:#BCBBBB;" width="31.071" height="113.224"/>
</g>
<rect x="158.035" y="222.377" style="fill:#EFEFEF;" width="195.936" height="69.412"/>
<rect x="158.035" y="222.377" style="fill:#DDDDDD;" width="30.448" height="69.412"/>
<path style="fill:#F94A46;" d="M310.385,19.709h-54.384v50.796h54.384c6.698,0,12.179-5.48,12.179-12.179V31.888
	C322.563,25.19,317.083,19.709,310.385,19.709z"/>
<path style="fill:#EF3C3C;" d="M310.385,45.106h-54.384v25.398h54.384c6.698,0,12.179-5.48,12.179-12.179V32.927
	C322.563,39.626,317.083,45.106,310.385,45.106z"/>
<path style="fill:#666666;" d="M256,105.651c-4.204,0-7.612-3.407-7.612-7.612V7.612C248.388,3.408,251.796,0,256,0
	s7.612,3.407,7.612,7.612V98.04C263.612,102.244,260.204,105.651,256,105.651z"/>
<rect x="101.463" y="315.55" style="fill:#EFEFEF;" width="309.07" height="168.875"/>
<rect x="101.463" y="315.55" style="fill:#DDDDDD;" width="30.448" height="168.875"/>
<path style="fill:#EFEFEF;" d="M256,98.04c-54.105,0-97.966,44.875-97.966,98.981h195.932C353.966,142.915,310.106,98.04,256,98.04z
	"/>
<path style="fill:#DDDDDD;" d="M271.224,99.245c-59.49-9.483-113.19,37.576-113.19,97.775h30.448
	C188.482,148.095,224.35,106.718,271.224,99.245z"/>
<path style="fill:#EAE4D6;" d="M493.183,343.635c-9.377,0-72.214,0-82.647,0v30.023c10.148,0,73.391,0,82.647,0
	c8.29,0,15.011-6.721,15.011-15.011C508.194,350.355,501.474,343.635,493.183,343.635z"/>
<rect x="410.533" y="343.631" style="fill:#DDD3C0;" width="31.071" height="30.021"/>
<path style="fill:#EAE4D6;" d="M18.818,343.635c6.933,0,71.356,0,82.647,0v30.023c-12.131,0-79.403,0-82.647,0
	c-8.29,0-15.011-6.721-15.011-15.011C3.806,350.355,10.527,343.635,18.818,343.635z"/>
<g>
	<path style="fill:#898989;" d="M201.194,272.049c-4.204,0-7.612-3.407-7.612-7.612v-13.969c0-4.204,3.408-7.612,7.612-7.612
		c4.204,0,7.612,3.408,7.612,7.612v13.969C208.807,268.642,205.398,272.049,201.194,272.049z"/>
	<path style="fill:#898989;" d="M237.73,272.049c-4.204,0-7.612-3.407-7.612-7.612v-13.969c0-4.204,3.408-7.612,7.612-7.612
		c4.204,0,7.612,3.408,7.612,7.612v13.969C245.343,268.642,241.935,272.049,237.73,272.049z"/>
	<path style="fill:#898989;" d="M310.803,272.049c-4.204,0-7.612-3.407-7.612-7.612v-13.969c0-4.204,3.408-7.612,7.612-7.612
		s7.612,3.408,7.612,7.612v13.969C318.415,268.642,315.007,272.049,310.803,272.049z"/>
	<path style="fill:#898989;" d="M274.267,272.049c-4.204,0-7.612-3.407-7.612-7.612v-13.969c0-4.204,3.408-7.612,7.612-7.612
		c4.204,0,7.612,3.408,7.612,7.612v13.969C281.879,268.642,278.471,272.049,274.267,272.049z"/>
	<path style="fill:#898989;" d="M459.365,417.161h-19.095c-4.204,0-7.612-3.408-7.612-7.612s3.408-7.612,7.612-7.612h19.095
		c4.204,0,7.612,3.407,7.612,7.612C466.978,413.753,463.569,417.161,459.365,417.161z"/>
	<path style="fill:#898989;" d="M459.365,453.697h-19.095c-4.204,0-7.612-3.407-7.612-7.612c0-4.205,3.408-7.612,7.612-7.612h19.095
		c4.204,0,7.612,3.407,7.612,7.612C466.978,450.29,463.569,453.697,459.365,453.697z"/>
	<path style="fill:#898989;" d="M72.799,417.161H53.704c-4.204,0-7.612-3.408-7.612-7.612s3.408-7.612,7.612-7.612h19.095
		c4.204,0,7.612,3.407,7.612,7.612C80.411,413.753,77.002,417.161,72.799,417.161z"/>
	<path style="fill:#898989;" d="M72.799,453.697H53.704c-4.204,0-7.612-3.407-7.612-7.612c0-4.205,3.408-7.612,7.612-7.612h19.095
		c4.204,0,7.612,3.407,7.612,7.612C80.411,450.29,77.002,453.697,72.799,453.697z"/>
	<path style="fill:#898989;" d="M219.465,462.518c-4.204,0-7.612-3.407-7.612-7.612v-105.89c0-4.204,3.408-7.612,7.612-7.612
		s7.612,3.407,7.612,7.612v105.89C227.077,459.111,223.669,462.518,219.465,462.518z"/>
	<path style="fill:#898989;" d="M182.929,462.518c-4.204,0-7.612-3.407-7.612-7.612v-105.89c0-4.204,3.408-7.612,7.612-7.612
		c4.204,0,7.612,3.407,7.612,7.612v105.89C190.54,459.111,187.132,462.518,182.929,462.518z"/>
	<path style="fill:#898989;" d="M146.393,462.518c-4.204,0-7.612-3.407-7.612-7.612v-105.89c0-4.204,3.408-7.612,7.612-7.612
		c4.204,0,7.612,3.407,7.612,7.612v105.89C154.005,459.111,150.597,462.518,146.393,462.518z"/>
	<path style="fill:#898989;" d="M365.607,462.518c-4.204,0-7.612-3.407-7.612-7.612v-105.89c0-4.204,3.408-7.612,7.612-7.612
		s7.612,3.407,7.612,7.612v105.89C373.219,459.111,369.812,462.518,365.607,462.518z"/>
	<path style="fill:#898989;" d="M329.072,462.518c-4.204,0-7.612-3.407-7.612-7.612v-105.89c0-4.204,3.408-7.612,7.612-7.612
		c4.204,0,7.612,3.407,7.612,7.612v105.89C336.685,459.111,333.276,462.518,329.072,462.518z"/>
	<path style="fill:#898989;" d="M292.536,462.518c-4.204,0-7.612-3.407-7.612-7.612v-105.89c0-4.204,3.408-7.612,7.612-7.612
		c4.204,0,7.612,3.407,7.612,7.612v105.89C300.147,459.111,296.739,462.518,292.536,462.518z"/>
	<path style="fill:#898989;" d="M256,462.518c-4.204,0-7.612-3.407-7.612-7.612v-105.89c0-4.204,3.408-7.612,7.612-7.612
		s7.612,3.407,7.612,7.612v105.89C263.612,459.111,260.204,462.518,256,462.518z"/>
</g>
<path style="fill:#EAE4D6;" d="M372.871,211.018c0-8.29-6.721-15.011-15.011-15.011c-67.794,0-135.506,0-203.718,0
	c-8.29,0-15.011,6.721-15.011,15.011c0,8.29,6.72,15.011,15.011,15.011c34.223,0,180.612,0,203.718,0
	C366.149,226.029,372.871,219.308,372.871,211.018z"/>
<path style="fill:#DDD3C0;" d="M176.429,211.018c0-8.29,6.72-15.011,15.011-15.011c-7.867,0-28.435,0-37.299,0
	c-8.29,0-15.011,6.721-15.011,15.011s6.72,15.011,15.011,15.011c9.84,0,29.439,0,37.299,0
	C183.15,226.029,176.429,219.308,176.429,211.018z"/>
<path style="fill:#EAE4D6;" d="M430.298,303.585c0-8.29-6.721-15.011-15.011-15.011c-37.433,0-283.051,0-318.574,0
	c-8.29,0-15.011,6.721-15.011,15.011s6.72,15.011,15.011,15.011c72.304,0,242.671,0,318.574,0
	C423.577,318.596,430.298,311.875,430.298,303.585z"/>
<g>
	<path style="fill:#DDD3C0;" d="M119.001,303.585c0-8.29,6.72-15.011,15.011-15.011c-7.867,0-28.435,0-37.299,0
		c-8.29,0-15.011,6.721-15.011,15.011s6.72,15.011,15.011,15.011c9.84,0,29.439,0,37.299,0
		C125.721,318.596,119.001,311.875,119.001,303.585z"/>
	<path style="fill:#DDD3C0;" d="M41.104,358.645c0-8.29,6.72-15.011,15.011-15.011c-7.867,0-28.435,0-37.299,0
		c-8.29,0-15.011,6.721-15.011,15.011c0,8.29,6.72,15.011,15.011,15.011c9.84,0,29.439,0,37.299,0
		C47.825,373.657,41.104,366.936,41.104,358.645z"/>
</g>
<path style="fill:#EAE4D6;" d="M493.183,481.977c-90.618,0-383.999,0-474.366,0c-8.29,0-15.011,6.721-15.011,15.011l0,0
	c0,8.29,6.721,15.011,15.011,15.011c145.265,0,333.652,0,474.366,0c8.29,0,15.011-6.721,15.011-15.011l0,0
	C508.194,488.698,501.474,481.977,493.183,481.977z"/>
<path style="fill:#DDD3C0;" d="M116.688,496.989L116.688,496.989c0-8.29,6.72-15.011,15.011-15.011H18.818
	c-8.29,0-15.011,6.721-15.011,15.011l0,0c0,8.29,6.72,15.011,15.011,15.011h112.882C123.409,512,116.688,505.28,116.688,496.989z"/>
<g>
</g>
<g>
</g>
<g>
</g>
<g>
</g>
<g>
</g>
<g>
</g>
<g>
</g>
<g>
</g>
<g>
</g>
<g>
</g>
<g>
</g>
<g>
</g>
<g>
</g>
<g>
</g>
<g>
</g>
</svg>
