<?xml version="1.0" encoding="iso-8859-1"?>
<!-- Generator: Adobe Illustrator 19.0.0, SVG Export Plug-In . SVG Version: 6.00 Build 0)  -->
<svg version="1.1" id="Capa_1" xmlns="http://www.w3.org/2000/svg" xmlns:xlink="http://www.w3.org/1999/xlink" x="0px" y="0px"
	 viewBox="0 0 492.637 492.637" style="enable-background:new 0 0 492.637 492.637;" xml:space="preserve">
<circle style="fill:#FF7043;" cx="245.333" cy="246.176" r="245.333"/>
<path style="fill:#37474F;" d="M403.093,58.571c-1.089-1.501-2.563-2.68-4.267-3.413C292.566-27.919,139.078-9.124,56.002,97.137
	s-64.281,259.748,41.98,342.824s259.748,64.281,342.824-41.98C522.571,293.398,505.821,142.655,403.093,58.571z M452.267,160.843
	c-25.495-23.048-54.869-41.4-86.763-54.208c2.494-13.915,12.27-25.417,25.6-30.123C417.811,99.447,438.761,128.333,452.267,160.843z
	 M345.216,99.552c-15.271-4.997-30.905-8.806-46.763-11.392c0.128-18.56,0.192-38.272,0.213-59.307
	c26.434,6.443,51.466,17.672,73.856,33.131C358.923,70.523,349.141,83.98,345.216,99.552z M277.333,24.736
	c0,21.803,0,42.112-0.235,61.248c-14.742-1.36-29.556-1.788-44.352-1.28c-2.33-17.9-11.014-34.367-24.469-46.4
	c-4.745-3.927-10.025-7.159-15.68-9.6c17.256-4.27,34.96-6.461,52.736-6.528C256.048,22.262,266.742,23.118,277.333,24.736z
	 M150.869,43.36h0.213c15.375-1.967,30.917,2.05,43.413,11.221c8.88,8.254,14.707,19.268,16.533,31.253
	c-58.567,4.438-115.013,23.845-163.925,56.363C70.009,98.833,106.442,64.129,150.869,43.36z M28.907,189.387
	c0.518-0.442,0.989-0.935,1.408-1.472c21.333-33.557,96.427-72.747,182.976-80.875v0.469c0,45.419-55.36,108.8-99.84,159.68
	c-25.069,25.761-46.944,54.447-65.152,85.44C21.101,302.72,14.157,244.257,28.907,189.365V189.387z M63.531,376.523
	c0.248-0.761,0.405-1.549,0.469-2.347c0-17.92,33.323-56.064,65.557-92.949c49.28-56.384,105.109-120.384,105.109-173.717
	c0-0.661-0.128-1.195-0.149-1.856c14.134-0.491,28.284-0.092,42.368,1.195c-2.496,216.875-17.237,261.312-72.811,358.016
	c-0.171,0.417-0.313,0.844-0.427,1.28C147.176,455.348,97.012,423.263,63.531,376.523z M226.133,469.195
	c56.896-100.267,69.888-154.261,72.107-359.68c14.751,2.379,29.294,5.903,43.499,10.539c-0.192,2.859-0.427,5.675-0.427,8.789
	c3.022,44.058,14.716,87.086,34.411,126.613c22.72,54.443,44.117,105.899,20.267,155.968
	c-41.092,37.754-94.853,58.72-150.656,58.752C238.933,470.176,232.533,469.749,226.133,469.195z M427.349,376.309
	c3.669-43.627-14.315-86.848-32-129.024c-18.45-36.996-29.549-77.22-32.683-118.443c0-0.341,0-0.576,0-0.917
	c39.819,16.915,74.99,43.153,102.549,76.501C476.904,264.492,463.196,326.716,427.349,376.309z"/>
<path d="M245.333,491.509C109.839,491.509,0,381.67,0,246.176S109.839,0.843,245.333,0.843s245.333,109.839,245.333,245.333
	C490.514,381.607,380.764,491.357,245.333,491.509z M245.333,22.176c-123.712,0-224,100.288-224,224s100.288,224,224,224
	s224-100.288,224-224C469.192,122.523,368.987,22.317,245.333,22.176z"/>
<path d="M475.413,210.421c-3.187,0.001-6.208-1.423-8.235-3.883C407.884,135.027,317.09,97.427,224.597,106.08
	c-91.285,5.568-171.904,46.805-194.261,81.835c-3.169,4.972-9.769,6.433-14.741,3.264s-6.433-9.769-3.264-14.741
	c25.365-39.744,107.947-85.333,210.987-91.733c99.254-8.851,196.53,31.582,260.267,108.181c3.747,4.546,3.099,11.269-1.447,15.015
	c-1.911,1.575-4.311,2.436-6.787,2.435L475.413,210.421z"/>
<path d="M53.333,384.843c-5.891,0-10.667-4.776-10.667-10.667c0-25.92,31.253-61.696,70.827-106.987
	c44.48-50.88,99.84-114.261,99.84-159.68c1.899-19.565-5.004-38.962-18.837-52.928c-12.494-9.175-28.038-13.193-43.413-11.221
	c-5.779,1.141-11.39-2.619-12.531-8.398c-1.141-5.779,2.619-11.39,8.398-12.531c0.21-0.042,0.422-0.077,0.634-0.105
	c21.564-3.06,43.451,2.701,60.715,15.979c18.765,17.919,28.452,43.343,26.368,69.205c0,53.333-55.829,117.333-105.109,173.717
	C97.344,318.112,64,356.256,64,374.176C64,380.067,59.224,384.843,53.333,384.843z"/>
<path d="M213.333,480.843c-5.891,0.005-10.671-4.767-10.675-10.658c-0.002-1.867,0.487-3.702,1.417-5.321
	c62.187-108.16,73.259-150.763,73.259-442.688c0-5.891,4.776-10.667,10.667-10.667c5.891,0,10.667,4.776,10.667,10.667
	c0,284.971-8.533,335.808-76.075,453.312C220.688,478.803,217.156,480.846,213.333,480.843z"/>
<path d="M405.333,427.509c-5.891,0-10.667-4.775-10.667-10.666c0-1.611,0.365-3.201,1.067-4.651
	c24.448-50.304,2.859-102.016-19.989-156.736c-19.695-39.527-31.389-82.555-34.411-126.613c0-69.461,51.925-74.667,52.459-74.667
	c5.839-0.397,10.935,3.924,11.499,9.749c0.491,5.871-3.869,11.028-9.74,11.519c-0.003,0-0.006,0.001-0.01,0.001
	c-3.243,0.363-32.875,4.907-32.875,53.333c3.176,41.205,14.304,81.405,32.768,118.379c23.659,56.704,48.128,115.307,19.499,174.272
	C413.169,425.134,409.436,427.498,405.333,427.509z"/>
<g>
</g>
<g>
</g>
<g>
</g>
<g>
</g>
<g>
</g>
<g>
</g>
<g>
</g>
<g>
</g>
<g>
</g>
<g>
</g>
<g>
</g>
<g>
</g>
<g>
</g>
<g>
</g>
<g>
</g>
</svg>
