<svg id="Capa_1" enable-background="new 0 0 512 512" height="512" viewBox="0 0 512 512" width="512" xmlns="http://www.w3.org/2000/svg"><g><g fill="#2b3890"><path d="m91.892 501.041c-3.512 0-6.69-2.41-7.519-5.978l-5.358-23.046c-.966-4.156 1.62-8.309 5.776-9.275 4.156-.967 8.309 1.62 9.275 5.776l5.358 23.046c.966 4.156-1.62 8.309-5.776 9.275-.588.137-1.177.202-1.756.202z"/><path d="m420.109 501.041c-.579 0-1.168-.065-1.757-.202-4.156-.966-6.742-5.119-5.777-9.275l5.357-23.046c.967-4.157 5.121-6.742 9.276-5.776 4.156.966 6.742 5.119 5.777 9.275l-5.357 23.046c-.83 3.568-4.007 5.978-7.519 5.978z"/></g><path d="m257.141 135.074c-2.25 0-4.388-.981-5.856-2.686l-93.513-108.662c-2.784-3.234-2.418-8.113.816-10.896 3.234-2.784 8.112-2.418 10.896.817l87.657 101.857 87.657-101.857c2.784-3.234 7.663-3.6 10.896-.817 3.234 2.783 3.6 7.662.816 10.896l-93.513 108.662c-1.468 1.705-3.606 2.686-5.856 2.686z" fill="#3342aa"/><path d="m460.881 105.344c-136.587-9.363-273.175-9.363-409.762 0-22.188 1.521-40.223 18.601-42.82 40.689-11.066 94.152-11.066 188.304 0 282.456 2.596 22.088 20.632 39.168 42.819 40.689 136.587 9.363 273.175 9.363 409.762 0 22.188-1.521 40.223-18.601 42.819-40.689 11.066-94.152 11.066-188.304 0-282.456-2.594-22.088-20.63-39.168-42.818-40.689z" fill="#5766cb"/><path d="m61.946 469.898c-3.601-.229-7.213-.468-10.825-.718-22.181-1.53-40.219-18.611-42.821-40.698-11.064-94.146-11.064-188.303 0-282.449 2.602-22.087 20.64-39.168 42.821-40.687 3.601-.25 7.203-.489 10.804-.718-13.791 7.078-23.721 20.651-25.626 36.836-11.418 97.196-11.418 194.392 0 291.588 1.905 16.185 11.845 29.768 25.647 36.846z" fill="#3342aa"/><path d="m437.069 142.392c-120.712-8.332-241.425-8.332-362.137 0-13.058.901-23.72 10.868-25.431 23.845-10.643 80.682-10.643 161.364 0 242.046 1.712 12.977 12.373 22.944 25.431 23.845 120.712 8.333 241.425 8.333 362.137 0 13.058-.901 23.72-10.868 25.431-23.845 10.643-80.682 10.643-161.364 0-242.046-1.712-12.976-12.373-22.944-25.431-23.845z" fill="#bed8fb"/><path d="m103.105 433.917c-9.399-.541-18.788-1.145-28.176-1.79-13.064-.896-23.722-10.867-25.429-23.847-10.648-80.677-10.648-161.365 0-242.043 1.707-12.98 12.365-22.941 25.428-23.846 9.399-.645 18.798-1.249 28.197-1.79-7.963 4.195-13.719 12.053-14.957 21.431-11.012 83.488-11.012 166.965 0 250.453 1.239 9.368 6.984 17.227 14.937 21.432z" fill="#9dc6fb"/><path d="m256 446.076c-60.675 0-121.35-2.079-181.601-6.238-16.684-1.152-30.377-13.997-32.559-30.543-10.682-80.976-10.682-163.092 0-244.067 2.183-16.546 15.876-29.391 32.559-30.543 120.501-8.318 242.7-8.318 363.201 0 16.684 1.152 30.377 13.997 32.559 30.543 10.682 80.975 10.682 163.091 0 244.067-2.182 16.546-15.875 29.391-32.559 30.543-60.25 4.158-120.925 6.238-181.6 6.238zm0-302.178c-60.319 0-120.639 2.067-180.536 6.202-9.381.648-17.078 7.859-18.304 17.148-10.505 79.634-10.505 160.391 0 240.025 1.225 9.289 8.923 16.5 18.304 17.148 119.794 8.27 241.277 8.27 361.072 0 9.381-.647 17.078-7.859 18.304-17.147 10.505-79.635 10.505-160.391 0-240.026-1.225-9.289-8.923-16.5-18.304-17.148-59.897-4.135-120.217-6.202-180.536-6.202z" fill="#3342aa"/></g></svg>