<?xml version="1.0" encoding="iso-8859-1"?>
<!-- Generator: Adobe Illustrator 19.0.0, SVG Export Plug-In . SVG Version: 6.00 Build 0)  -->
<svg version="1.1" id="Capa_1" xmlns="http://www.w3.org/2000/svg" xmlns:xlink="http://www.w3.org/1999/xlink" x="0px" y="0px"
	 viewBox="0 0 512.001 512.001" style="enable-background:new 0 0 512.001 512.001;" xml:space="preserve">
<path style="fill:#555E6B;" d="M152.366,0H34.769c-9.557,0-17.304,7.747-17.304,17.304V486.86H169.67V17.304
	C169.67,7.747,161.923,0,152.366,0z"/>
<path style="fill:#363C44;" d="M172.409,512H13.019c-6.083,0-10.031-6.411-7.294-11.842l11.739-23.297h152.357l10.104,23.778
	C182.214,506.025,178.261,512,172.409,512z"/>
<g>
	<rect x="84.421" style="fill:#414954;" width="15.668" height="476.86"/>
	<rect x="17.465" y="159.78" style="fill:#414954;" width="152.21" height="15.668"/>
</g>
<path style="fill:#434B56;" d="M169.67,262.692c-5.851,3.236-10.808,8.066-14.169,14.121l-4.394,7.918
	c-30.621,55.176-45.934,117.536-44.351,180.619l0.289,11.51h62.626V262.692H169.67z"/>
<path style="fill:#A7B7C6;" d="M318.713,278.423h94.757c2.402,0,4.705-0.954,6.403-2.652l0,0c1.698-1.698,4.001-2.652,6.403-2.652
	h9.294c11.708,0,22.495,6.35,28.176,16.587l3.905,7.036c27.21,49.03,40.817,104.444,39.411,160.501l-0.415,16.547
	c-0.533,21.256-17.918,38.21-39.18,38.21l0,0c-17.425,0-32.758-11.504-37.63-28.235l-15.199-52.193
	c-3.97-13.632-16.463-23.006-30.661-23.006h-65.264h-65.264c-14.198,0-26.692,9.374-30.661,23.006l-15.199,52.193
	c-4.872,16.73-20.204,28.235-37.63,28.235l0,0c-21.263,0-38.647-16.954-39.18-38.21l-0.415-16.547
	c-1.406-56.057,12.201-111.471,39.411-160.501l3.905-7.036c5.681-10.237,16.468-16.587,28.176-16.587h9.294
	c2.402,0,4.705,0.954,6.403,2.652l0,0c1.698,1.698,4.001,2.652,6.403,2.652H318.713"/>
<g>
	<path style="fill:#96ABBC;" d="M182.243,431.573l-15.199,52.193c-2.821,9.687-9.153,17.615-17.363,22.58
		c5.922,3.588,12.863,5.655,20.278,5.655l0,0c17.425,0,32.758-11.504,37.63-28.235l15.199-52.193
		c3.97-13.632,16.463-23.006,30.661-23.006h-40.545C198.706,408.567,186.213,417.941,182.243,431.573z"/>
	<path style="fill:#96ABBC;" d="M223.956,278.423c-2.402,0-4.705-0.954-6.403-2.652s-4.001-2.652-6.403-2.652h-9.294
		c-6.402,0-12.521,1.91-17.688,5.304L223.956,278.423L223.956,278.423z"/>
	<path style="fill:#96ABBC;" d="M467.651,296.742l-3.905-7.036c-5.681-10.237-16.468-16.587-28.176-16.587h-9.294
		c-2.402,0-4.705,0.954-6.403,2.652s-4.001,2.652-6.403,2.652h-0.757c4.283,2.814,7.913,6.644,10.488,11.283l3.905,7.036
		c27.21,49.03,40.817,104.444,39.411,160.501l-0.415,16.547c-0.347,13.843-7.844,25.856-18.902,32.555
		c5.97,3.609,12.931,5.655,20.267,5.655l0,0c21.263,0,38.647-16.954,39.18-38.21l0.415-16.547
		C508.468,401.186,494.861,345.772,467.651,296.742z"/>
</g>
<path style="fill:#2E343A;" d="M179.796,500.335l-9.975-23.474h-62.777l0.178,7.111c0.27,10.756,4.382,20.524,10.993,28.028h53.863
	C175.394,506.988,176.481,505.346,179.796,500.335z"/>
<circle style="fill:#CDD2DF;" cx="258.721" cy="374.41" r="34.23"/>
<path style="fill:#7A6CF7;" d="M136.705,99.241c-4.326,0-7.834-3.507-7.834-7.834V42.315c0-4.326,3.507-7.834,7.834-7.834
	c4.326,0,7.834,3.507,7.834,7.834v49.092C144.539,95.734,141.032,99.241,136.705,99.241z"/>
<circle style="fill:#788A9E;" cx="249.251" cy="360.59" r="17.11"/>
<circle style="fill:#CDD2DF;" cx="378.711" cy="374.41" r="34.23"/>
<circle style="fill:#788A9E;" cx="389.281" cy="360.59" r="17.11"/>
<g>
	<circle style="fill:#96ABBC;" cx="203.781" cy="320.7" r="41.457"/>
	<circle style="fill:#96ABBC;" cx="432.341" cy="322" r="40.15"/>
</g>
<path style="fill:#CDD2DF;" d="M168.105,460.852c-18.045-4.716-29.165-12.123-37.769-17.678c-0.092,4.683-0.089,9.374,0.029,14.069
	l0.415,16.547c0.533,21.256,17.918,38.21,39.18,38.21l0,0c17.425,0,32.757-11.504,37.63-28.235l5.517-18.945
	C199.487,465.632,183.823,464.96,168.105,460.852z"/>
<path style="fill:#BBC6D4;" d="M207.584,483.765l5.517-18.945c-12.101,0.721-25.817,0.264-39.751-2.727l-6.311,21.672
	c-2.821,9.687-9.153,17.615-17.363,22.58c5.922,3.588,12.863,5.655,20.278,5.655C187.379,512,202.712,500.495,207.584,483.765z"/>
<path style="fill:#CDD2DF;" d="M469.327,460.852c18.045-4.716,29.165-12.123,37.769-17.678c0.092,4.683,0.089,9.374-0.029,14.069
	l-0.415,16.547c-0.533,21.256-17.918,38.21-39.18,38.21l0,0c-17.425,0-32.757-11.504-37.629-28.235l-5.517-18.945
	C437.945,465.632,453.608,464.96,469.327,460.852z"/>
<path style="fill:#BBC6D4;" d="M469.327,460.852c-0.973,0.254-1.946,0.495-2.919,0.724l-0.306,12.215
	c-0.347,13.841-7.843,25.854-18.899,32.553c5.97,3.611,12.932,5.657,20.269,5.657c21.263,0,38.647-16.954,39.18-38.21l0.415-16.547
	c0.118-4.696,0.121-9.386,0.029-14.069C498.493,448.729,487.372,456.136,469.327,460.852z"/>
<path style="fill:#788A9E;" d="M343.969,318.205h-47.491c-10.112,0-18.31-8.198-18.31-18.31v-21.472h84.111v21.472
	C362.279,310.007,354.081,318.205,343.969,318.205z"/>
<circle cx="432.341" cy="306.68" r="7.834"/>
<circle cx="432.341" cy="337.32" r="7.834"/>
<circle cx="416.671" cy="321.65" r="7.834"/>
<circle cx="448.011" cy="321.65" r="7.834"/>
<circle cx="205.081" cy="306.76" r="7.834"/>
<circle cx="205.081" cy="337.4" r="7.834"/>
<circle cx="189.411" cy="321.73" r="7.834"/>
<circle cx="220.751" cy="321.73" r="7.834"/>
<g>
</g>
<g>
</g>
<g>
</g>
<g>
</g>
<g>
</g>
<g>
</g>
<g>
</g>
<g>
</g>
<g>
</g>
<g>
</g>
<g>
</g>
<g>
</g>
<g>
</g>
<g>
</g>
<g>
</g>
</svg>
